<svg width="8" height="10" fill="none" xmlns="http://www.w3.org/2000/svg"><mask id="a" fill="#fff"><path fill-rule="evenodd" clip-rule="evenodd" d="M3.151 5.764h.95c.384 0 .768 0 1.171-.039C6.768 5.648 7.96 4.437 8 2.955 8.02 1.436 6.848.11 5.353.032a47.32 47.32 0 00-2.868-.02c-.445.02-.89.02-1.354.02H.93v4.424H0v1.288h.93v.52H.02v1.289h.91V9.34h1.454V7.553h2.242v-1.29H2.384v-.5h.767zm-.767-1.308h.343v.019h.707c.849.02 1.434 0 1.778-.02.808-.076 1.454-.769 1.434-1.576 0-.847-.687-1.54-1.555-1.578a22.23 22.23 0 00-1.466-.021l-.514.002h-.727v3.174z"/></mask><path fill-rule="evenodd" clip-rule="evenodd" d="M3.151 5.764h.95c.384 0 .768 0 1.171-.039C6.768 5.648 7.96 4.437 8 2.955 8.02 1.436 6.848.11 5.353.032a47.32 47.32 0 00-2.868-.02c-.445.02-.89.02-1.354.02H.93v4.424H0v1.288h.93v.52H.02v1.289h.91V9.34h1.454V7.553h2.242v-1.29H2.384v-.5h.767zm-.767-1.308h.343v.019h.707c.849.02 1.434 0 1.778-.02.808-.076 1.454-.769 1.434-1.576 0-.847-.687-1.54-1.555-1.578a22.23 22.23 0 00-1.466-.021l-.514.002h-.727v3.174z" fill="#C4C4C4"/><path d="M5.272 5.725l-.012-.25-.011.001.024.25zM8 2.955l.25.007V2.96L8 2.955zM5.353.032l.013-.25h-.003l-.01.25zM2.485.012l-.005-.25h-.006l.01.25zM.929.033v-.25H.68v.25h.25zm0 4.424v.25h.25v-.25H.93zm-.929 0v-.25h-.25v.25H0zm0 1.288h-.25v.25H0v-.25zm.93 0h.25v-.25H.93v.25zm0 .52v.25h.25v-.25H.93zm-.91 0v-.25h-.25v.25h.25zm0 1.289h-.25v.25h.25v-.25zm.91 0h.25v-.25H.93v.25zm0 1.788H.68v.25h.25v-.25zm1.454 0v.25h.25v-.25h-.25zm0-1.788v-.25h-.25v.25h.25zm2.242 0v.25h.25v-.25h-.25zm0-1.29h.25v-.25h-.25v.25zm-2.242 0h-.25v.25h.25v-.25zm0-.5v-.25h-.25v.25h.25zm.343-1.307h.25v-.25h-.25v.25zm-.343 0h-.25v.25h.25v-.25zm.343.019h-.25v.25h.25v-.25zm.707 0l.006-.25h-.006v.25zm1.778-.02l.014.25h.01l-.024-.25zM6.646 2.88h-.25v.006l.25-.006zM5.091 1.3l-.015.25h.004l.01-.25zm-1.466-.02l-.002-.25.002.25zm-1.241.002v-.25h-.25v.25h.25zM4.1 5.514h-.95v.5h.95v-.5zm0 0v.5-.5zm1.148-.038c-.39.038-.763.038-1.148.038v.5c.382 0 .778 0 1.195-.04l-.047-.498zm2.5-2.527c-.036 1.348-1.123 2.456-2.49 2.527l.026.499c1.624-.084 2.92-1.4 2.965-3.013l-.5-.013zM5.34.282c1.351.07 2.428 1.275 2.41 2.67l.5.007C8.27 1.315 7.005-.133 5.366-.218l-.026.5zM2.49.262C3.476.244 4.4.244 5.343.283l.02-.5a47.567 47.567 0 00-2.883-.02l.01.5zM1.13.283c.464 0 .914 0 1.365-.02l-.022-.5c-.438.02-.877.02-1.343.02v.5zm-.202 0h.202v-.5h-.2v.5zm.25 3.635V.032h-.5v3.885h.5zm0 .539v-.539h-.5v.539h.5zM0 4.706h.93v-.5H0v.5zm.25 1.038V4.456h-.5v1.288h.5zm.68-.25H0v.5h.93v-.5zm.25.77v-.52h-.5v.52h.5zm-1.16.25h.91v-.5H.02v.5zm.25 1.039v-1.29h-.5v1.29h.5zm.66-.25H.02v.5h.91v-.5zm.25 2.038V7.553h-.5V9.34h.5zm1.204-.25H.929v.5h1.455v-.5zm-.25-1.538V9.34h.5V7.553h-.5zm2.492-.25H2.384v.5h2.242v-.5zm-.25-1.04v1.29h.5v-1.29h-.5zm-1.992.25h2.242v-.5H2.384v.5zm-.25-.75v.5h.5v-.5h-.5zm1.017-.25h-.767v.5h.767v-.5zm-.424-1.307h-.343v.5h.343v-.5zm.25.269v-.02h-.5v.02h.5zm.033-.25h-.283v.5h.283v-.5zm.343 0H3.01v.5h.343v-.5zm.081 0h-.08v.5h.08v-.5zm1.764-.019c-.337.019-.916.038-1.758.02l-.011.499c.854.02 1.447 0 1.797-.02l-.028-.499zm1.198-1.321c.017.669-.523 1.257-1.208 1.322l.048.498c.93-.089 1.684-.886 1.66-1.833l-.5.013zM5.08 1.55c.742.033 1.316.622 1.316 1.328h.5c0-.988-.8-1.783-1.794-1.827l-.022.5zm-1.453-.02c.5-.004.976-.007 1.449.02l.03-.498c-.493-.03-.985-.026-1.483-.022l.004.5zm-.516.002l.516-.002-.004-.5-.512.002v.5zm-.727 0h.727v-.5h-.727v.5zm.25 2.385V1.282h-.5v2.635h.5zm-.5 0v.539h.5v-.539h-.5z" fill="#fff" mask="url(#a)"/></svg>