<svg width="80" height="76" fill="none" xmlns="http://www.w3.org/2000/svg"><path d="M.9 70c-.067 0-.1-.033-.1-.1l.04-13.74c0-.053.027-.08.08-.08l3.74-.02c.733-.013 1.4.16 2 .52.613.36 1.1.847 1.46 1.46.36.6.54 1.267.54 2v5.74c0 .773-.187 1.48-.56 2.12a4.253 4.253 0 01-1.5 1.5c-.627.373-1.333.567-2.12.58L.9 70zm2.34-2.46h1.24a1.65 1.65 0 001.24-.52c.347-.347.52-.76.52-1.24v-5.76c0-.427-.16-.793-.48-1.1a1.406 1.406 0 00-1.1-.46l-1.4.02-.02 9.06zM10.314 70c-.054 0-.08-.033-.08-.1l.04-13.74c0-.053.026-.08.08-.08h4.04c.72 0 1.38.18 1.98.54.613.347 1.1.82 1.46 1.42.36.587.54 1.253.54 2 0 .493-.074.94-.22 1.34-.147.387-.32.72-.52 1-.2.267-.38.467-.54.6.72.8 1.08 1.74 1.08 2.82l.02 4.1c0 .067-.034.1-.1.1h-2.26c-.054 0-.08-.02-.08-.06V65.8c0-.48-.174-.893-.52-1.24a1.622 1.622 0 00-1.24-.54h-1.32l-.02 5.88c0 .067-.027.1-.08.1h-2.26zm2.36-8.38h1.72c.413 0 .78-.153 1.1-.46.32-.307.48-.68.48-1.12 0-.427-.16-.793-.48-1.1a1.5 1.5 0 00-1.1-.46h-1.72v3.14zM19.982 70c-.067 0-.1-.033-.1-.1l.02-13.74c0-.053.027-.08.08-.08h2.24c.053 0 .08.027.08.08l.02 13.74c0 .067-.027.1-.08.1h-2.26zm6.34 0c-.054 0-.087-.033-.1-.1l-2.76-13.74c-.014-.053.013-.08.08-.08h2.26c.053 0 .086.027.1.08l1.64 9.16 1.6-9.16c.013-.053.046-.08.1-.08h2.24c.066 0 .093.027.08.08l-2.72 13.74c-.014.067-.047.1-.1.1h-2.42zm6.492 0c-.054 0-.08-.033-.08-.1l.02-13.74c0-.053.026-.08.08-.08h6.42c.053 0 .08.033.08.1v2.24c0 .053-.027.08-.08.08h-4.1v3.12h4.1c.053 0 .08.027.08.08l.02 2.26c0 .053-.027.08-.08.08h-4.12v3.5h4.12c.053 0 .08.033.08.1v2.28c0 .053-.027.08-.08.08h-6.46zm11.367 0c-.054 0-.08-.033-.08-.1l.04-13.74c0-.053.026-.08.08-.08h2.44c.053 0 .1.027.14.08l1.82 2.64 1.82-2.64c.04-.053.086-.08.14-.08h2.46c.053 0 .08.027.08.08l.04 13.74c0 .067-.027.1-.08.1h-2.26c-.054 0-.08-.033-.08-.1l-.02-10.2-2.1 3.04-2.08-3.04-.02 10.2c0 .067-.027.1-.08.1h-2.26zm14.362.2c-.72 0-1.38-.18-1.98-.54a4.373 4.373 0 01-1.42-1.46 3.918 3.918 0 01-.54-2.02l.02-6.34c0-.733.173-1.4.52-2 .36-.6.84-1.08 1.44-1.44a3.74 3.74 0 011.96-.54c.72 0 1.373.18 1.96.54.587.36 1.053.84 1.4 1.44.36.6.54 1.267.54 2l.02 6.34c0 .733-.18 1.407-.54 2.02-.347.6-.82 1.087-1.42 1.46-.587.36-1.24.54-1.96.54zm0-2.42c.4 0 .747-.16 1.04-.48.307-.333.46-.707.46-1.12l-.02-6.34c0-.44-.14-.813-.42-1.12a1.374 1.374 0 00-1.06-.46c-.413 0-.767.153-1.06.46-.293.293-.44.667-.44 1.12v6.34c0 .44.147.82.44 1.14.293.307.647.46 1.06.46zM65.73 70c-.054 0-.08-.033-.08-.1V58.5h-2.6c-.067 0-.1-.033-.1-.1l.02-2.24c0-.053.026-.08.08-.08h7.6c.066 0 .1.027.1.08v2.24c0 .067-.027.1-.08.1h-2.62l.02 11.4c0 .067-.027.1-.08.1h-2.26zm9.258.2c-.72 0-1.38-.18-1.98-.54a4.373 4.373 0 01-1.42-1.46 3.918 3.918 0 01-.54-2.02l.02-6.34c0-.733.174-1.4.52-2 .36-.6.84-1.08 1.44-1.44a3.74 3.74 0 011.96-.54c.72 0 1.374.18 1.96.54.587.36 1.054.84 1.4 1.44.36.6.54 1.267.54 2l.02 6.34c0 .733-.18 1.407-.54 2.02-.346.6-.82 1.087-1.42 1.46-.586.36-1.24.54-1.96.54zm0-2.42c.4 0 .747-.16 1.04-.48.307-.333.46-.707.46-1.12l-.02-6.34c0-.44-.14-.813-.42-1.12a1.374 1.374 0 00-1.06-.46c-.413 0-.766.153-1.06.46-.293.293-.44.667-.44 1.12v6.34c0 .44.147.82.44 1.14.294.307.647.46 1.06.46zM59.044 7.956a2.07 2.07 0 00-2.63-.247c-3.098 2.112-18.636 12.73-20.306 14.4a6.218 6.218 0 000 8.783 6.192 6.192 0 004.392 1.816c1.59 0 3.181-.605 4.392-1.816 1.67-1.67 12.287-17.208 14.399-20.306a2.07 2.07 0 00-.247-2.63zm-17.08 20.008a2.072 2.072 0 01-2.928 0 2.072 2.072 0 010-2.927c.649-.642 5.06-3.788 10.488-7.56-3.773 5.427-6.92 9.838-7.56 10.487z" fill="#2F3035"/><path d="M23.547 36.13l-2.556 1.246a22.25 22.25 0 01-1.395-18.814l2.929 1.405a2.07 2.07 0 001.79-3.733l-2.891-1.387c3.594-5.862 9.812-9.948 17.006-10.611V7.35a2.07 2.07 0 104.14 0V4.234a22.14 22.14 0 017.12 1.875 2.07 2.07 0 001.703-3.773A26.299 26.299 0 0040.5 0c-7.078 0-13.733 2.756-18.738 7.762C16.756 12.767 14 19.422 14 26.5c0 5.23 1.553 10.318 4.49 14.711a2.07 2.07 0 002.629.71l4.244-2.07a2.07 2.07 0 10-1.816-3.722zm41.117-20.523a2.07 2.07 0 10-3.773 1.704 22.181 22.181 0 011.968 9.189c0 3.82-.984 7.55-2.86 10.892l-2.668-1.27a2.07 2.07 0 00-1.78 3.738l4.348 2.07a2.07 2.07 0 002.611-.719C65.448 36.818 67 31.731 67 26.5c0-3.795-.786-7.46-2.336-10.893z" fill="#2F3035"/></svg>