<svg width="16" height="18" fill="none" xmlns="http://www.w3.org/2000/svg"><path d="M2.677 8.918V.395c2.803 0 5.341-.111 7.879.037 2.651.148 4.659 2.594 4.583 5.262-.076 2.594-2.121 4.854-4.772 4.966-1.894.11-3.75.037-5.72.037l-1.97-1.78zm1.97-6.819v6.893c.492.037 1.97 0 2.348 0 1.061 0 2.538.037 3.372-.074a3.372 3.372 0 003.03-3.41c-.038-1.778-1.402-3.297-3.258-3.409-1.78-.074-3.598 0-5.492 0z" fill="#1C62CD"/><path d="M8.246 11.104H4.647v-.74h1.818c1.326 0 2.614.036 3.902-.038 2.424-.148 4.356-2.15 4.394-4.632.075-2.557-1.856-4.743-4.243-4.891C8.776.69 7.034.728 5.215.765c-.72 0-1.439.038-2.159.038v8.152H2.3V.061h.379c.87 0 1.704 0 2.537-.037a86.36 86.36 0 015.38.037c2.802.149 5 2.706 4.961 5.633-.076 2.853-2.31 5.188-5.113 5.336-.758.074-1.478.074-2.197.074zm0-1.741H4.61l-.341-.037V1.692H6.39c1.288 0 2.538-.037 3.788.037 2.007.111 3.598 1.779 3.636 3.78.038 1.927-1.477 3.594-3.371 3.78-.493.074-1.25.074-2.197.074zM6.844 8.62h.152c1.59.038 2.69 0 3.333-.037 1.515-.148 2.727-1.482 2.69-3.038a3.047 3.047 0 00-2.917-3.039C8.89 2.433 7.678 2.47 6.39 2.47H5.026v6.151h1.818z" fill="#1C62CD"/><path d="M5.329 8.992H.973v1.742h4.356V8.992z" fill="#1C62CD"/><path d="M5.67 11.067H.557V8.584H5.67v2.483zm-4.318-.741H4.95v-1H1.353v1zm7.499 2.112H.973v1.742H8.85v-1.742z" fill="#1C62CD"/><path d="M9.23 14.55H.594v-2.482H9.23v2.483zm-7.879-.74h7.121v-1.001h-7.12v1z" fill="#1C62CD"/><path d="M4.647 7.917h-1.97v9.71h1.97v-9.71z" fill="#1C62CD"/><path d="M5.026 17.997H2.3V7.547h2.727v10.45zm-1.97-.741H4.27V8.288H3.056v8.968z" fill="#1C62CD"/></svg>